<?xml version="1.0" encoding="iso-8859-1"?>
<!-- Generator: Adobe Illustrator 21.0.0, SVG Export Plug-In . SVG Version: 6.00 Build 0)  -->
<svg version="1.1" id="Capa_1" xmlns="http://www.w3.org/2000/svg" xmlns:xlink="http://www.w3.org/1999/xlink" x="0px" y="0px"
	 viewBox="0 0 511.997 511.997" style="enable-background:new 0 0 511.997 511.997;" xml:space="preserve">
<path style="fill:#61B2E6;" d="M460.668,42.9c-5.603-2.32-12.058-1.038-16.348,3.251l-18.617,18.617
	C378.848,23.001,319.046,0.111,255.705,0c-0.155,0-0.306,0-0.46,0C186.977,0,122.887,26.499,74.744,74.643
	c-87.006,87.006-97.89,221.797-32.766,321.087v-66.34c0-8.285,6.716-15.001,15.001-15.001h79.557
	c-9.052-18.199-13.93-38.394-14.104-59.357c-0.299-35.918,13.292-69.454,38.269-94.432c24.71-24.71,57.791-38.274,93.274-38.274
	c0.386,0,0.773,0.002,1.159,0.005c30.783,0.256,59.918,10.639,83.491,29.516l-20.189,20.189c-4.29,4.29-5.573,10.743-3.252,16.348
	c2.322,5.605,7.791,9.261,13.859,9.261h46.246h79.638c8.284,0,15.001-6.716,15.001-15.001v-66.306v-59.58
	C469.927,50.691,466.273,45.222,460.668,42.9z"/>
<path style="fill:#13496B;" d="M469.927,116.335v66.306c0,8.285-6.716,15.001-15.001,15.001h-79.638
	C400.863,249,391.498,311.134,351.203,351.43c-24.71,24.708-57.792,38.273-93.274,38.273c-0.385,0-0.773-0.001-1.159-0.004
	c-30.782-0.257-59.918-10.64-83.49-29.516l20.189-20.189c4.29-4.29,5.573-10.742,3.252-16.348
	c-2.322-5.605-7.791-9.261-13.859-9.261h-46.326H56.98c-8.285,0-15.001,6.716-15.001,15.001v66.34v59.543
	c0,6.066,3.654,11.537,9.261,13.859c5.603,2.319,12.057,1.039,16.348-3.252l18.619-18.618
	c48.459,43.156,109.459,64.741,170.416,64.739c65.422-0.001,130.794-24.866,180.539-74.611
	C522.821,351.728,536.268,217.44,469.927,116.335z"/>
<g>
	<path style="fill:#368DCF;" d="M255.952,326.97c-13.838,0-27.676-5.267-38.209-15.802c-17.553-17.552-20.902-44.684-8.146-65.978
		l33.487-55.902c2.71-4.523,7.596-7.292,12.869-7.292s10.159,2.769,12.869,7.292l33.487,55.901
		c12.756,21.295,9.406,48.427-8.146,65.979C283.628,321.703,269.79,326.97,255.952,326.97z"/>
	<path style="fill:#368DCF;" d="M255.98,389.687c-30.49-0.427-59.329-10.787-82.699-29.501l20.189-20.189
		c4.29-4.29,5.573-10.742,3.252-16.348c-2.322-5.605-7.791-9.261-13.859-9.261h-46.327H56.98c-8.285,0-15.001,6.716-15.001,15.001
		v66.34v59.543c0,6.066,3.654,11.537,9.261,13.859c5.603,2.319,12.057,1.039,16.348-3.252l18.619-18.618
		c48.289,43.005,109.031,64.583,169.775,64.732V389.687H255.98z"/>
</g>
<path style="fill:#BDE6FC;" d="M261.497,0.076c-1.927-0.046-3.857-0.072-5.791-0.075c-0.155,0-0.306,0-0.46,0
	c-68.268,0-132.358,26.499-180.501,74.643c-87.006,87.006-97.89,221.797-32.766,321.087v-66.34c0-8.285,6.716-15.001,15.001-15.001
	h79.557c-9.052-18.199-13.93-38.394-14.104-59.357c-0.299-35.918,13.292-69.454,38.269-94.432
	c24.71-24.71,57.791-38.274,93.274-38.274c0.386,0,0.773,0.002,1.159,0.005c2.129,0.018,4.25,0.089,6.362,0.203V0.076z"/>
<path style="fill:#4AB8F7;" d="M256.19,182.004c-0.08-0.001-0.158-0.008-0.237-0.008c-5.272,0-10.159,2.769-12.869,7.292
	l-33.487,55.902c-12.756,21.294-9.406,48.426,8.146,65.978c10.534,10.535,24.371,15.802,38.209,15.802
	c0.079,0,0.158-0.005,0.237-0.006V182.004z"/>
<g>
</g>
<g>
</g>
<g>
</g>
<g>
</g>
<g>
</g>
<g>
</g>
<g>
</g>
<g>
</g>
<g>
</g>
<g>
</g>
<g>
</g>
<g>
</g>
<g>
</g>
<g>
</g>
<g>
</g>
</svg>
